# xmcd
#
# Track frame offsets: 
#        150
#        11740
#        21156
#        31636
#        51831
#        67942
#        80321
#        92870
#        112473
#        126199
#        135469
#        144831
#        164422
#        180281
#
# Disc length: 2595 seconds
#
# Revision: 0
# Processed by: cddbd v1.5.2PL0 Copyright (c) Steve Scherf et al.
# Submitted via: ExactAudioCopyFreeDBPlugin 1.0
#
DISCID=b10a210e
DTITLE=Willie Nelson - Playlist: The Very Best Of Willie Nelson
DYEAR=1968
DGENRE=Country
TTITLE0=On The Road Again
TTITLE1=If You've Got The Money I've Got The Time
TTITLE2=Blue Eyes Crying In The Rain
TTITLE3=Angel Flying Too Close To The Ground
TTITLE4=The Pligrim: Chapter 33
TTITLE5=I'm Movin' On With Hank Snow
TTITLE6=Big River with Waylon Jennings, Johnny Cash, and Kristofferson
TTITLE7=Georgia On My Mind
TTITLE8=If You Can Touch Her At All with Waylon Jennings
TTITLE9=Something To Brag About with Mary Kay Place
TTITLE10=Live Fast, Love Hard, Die Young with Faron Young
TTITLE11=Last Thing I Needed The First Thing This Morning
TTITLE12=Always On My Mind
TTITLE13=Sweet Memories
EXTD=
EXTT0=
EXTT1=
EXTT2=
EXTT3=
EXTT4=
EXTT5=
EXTT6=
EXTT7=
EXTT8=
EXTT9=
EXTT10=
EXTT11=
EXTT12=
EXTT13=
PLAYORDER=
